<svg fill="none" height="20" viewBox="0 0 20 20" width="20" xmlns="http://www.w3.org/2000/svg"><path d="m15.7487 2.20235-13.00006 7.49686c-1.075.62189-.97187 2.21249.17813 2.68439l3.57187 1.4781v2.6375c0 1.45 1.85001 2.0469 2.70626.8937l1.3687-1.8468 3.4969 1.4437c.1844.075.3782.1125.5719.1125.2563 0 .5094-.0656.7375-.1937.4-.225.675-.625.7469-1.0782l1.8562-12.09993c.1907-1.25312-1.1531-2.14999-2.2343-1.52812zm-7.75005 14.29685v-2.0188l1.14375.4719zm6.64375-.8969-4.80625-1.9844 4.38125-6.32181c.3344-.48437-.2969-1.04687-.7406-.6625l-6.6094 5.75941-3.36876-1.3938 13.00006-7.49998z" fill="#007cff"/></svg>