<svg fill="none" height="107" viewBox="0 0 172 107" width="172" xmlns="http://www.w3.org/2000/svg" xmlns:xlink="http://www.w3.org/1999/xlink"><filter id="a" color-interpolation-filters="sRGB" filterUnits="userSpaceOnUse" height="107" width="172" x="0" y="0"><feFlood flood-opacity="0" result="BackgroundImageFix"/><feColorMatrix in="SourceAlpha" type="matrix" values="0 0 0 0 0 0 0 0 0 0 0 0 0 0 0 0 0 0 127 0"/><feOffset dy="2"/><feGaussianBlur stdDeviation="3"/><feColorMatrix type="matrix" values="0 0 0 0 0.145098 0 0 0 0 0.145098 0 0 0 0 0.14902 0 0 0 0.08 0"/><feBlend in2="BackgroundImageFix" mode="normal" result="effect1_dropShadow"/><feBlend in="SourceGraphic" in2="effect1_dropShadow" mode="normal" result="shape"/></filter><g filter="url(#a)"><rect fill="#e5e5ea" height="95" rx="10" width="160" x="6" y="4"/><rect height="94" rx="9.5" stroke="#8e8e93" width="159" x="6.5" y="4.5"/></g><rect fill="#fff" height="86" rx="5" width="152" x="10" y="5"/><path d="m34.5584 16.6698c-.1852-.3323-.6292-.3074-.786.0353-.7274 1.5666-2.1818 2.6307-3.9362 2.7842l-2.2138.1937c-2.9332.2566-5.1048 2.8447-4.8482 5.7779.0169.1937.0553.3772.0911.5636 1.6549-1.419 4.1095-2.7157 7.7235-3.0319.2435-.0213.4602.1605.4815.404.0213.2436-.1605.4602-.404.4815-6.9568.6087-9.5336 5.131-10.0464 6.7904-.1432.467.1177.9628.5849 1.1088.4703.1484.9659-.1152 1.1148-.58.0328-.1032.4624-1.3761 1.7703-2.6811 1.0029 1.1363 2.8089 2.1467 5.0268 1.7128 4.3169-.6955 7.0338-4.8593 6.6164-9.6299-.1215-1.3892-.5463-2.802-1.1747-3.9293z" fill="#8e8e93"/><g fill="#c7c7cc"><rect height="1" rx=".5" width="32" x="70" y="50"/><rect height="1" rx=".5" width="28" x="70" y="45"/><rect height="1" rx=".5" width="24" x="70" y="55"/></g><path clip-rule="evenodd" d="m152.268 37.0278 2.224.1945c.272.0238.511-.1764.535-.447l.238-2.718c.023-.2713-.178-.5101-.45-.5339-.341-.0298-.595-.3307-.565-.6704s.332-.5917.673-.5619c.272.0238.512-.177.535-.4477l.194-2.2145c.024-.2713-.177-.5101-.449-.5339-.341-.0298-.595-.3304-.565-.6704.029-.3397.331-.592.672-.5622.272.0238.512-.1767.536-.4477l.194-2.2142c.023-.2713-.178-.5101-.45-.5339-.341-.0298-.595-.3308-.565-.6705.03-.34.332-.592.673-.5621.272.0238.512-.1768.535-.4477l.194-2.2146c.024-.2709-.178-.5101-.449-.5338-.341-.0299-.595-.3305-.566-.6702.03-.3397.332-.592.673-.5621.272.0238.512-.1768.536-.4477l.238-2.718c.023-.2713-.178-.5101-.453-.5341l-2.223-.1945c-.272-.0238-.512.1767-.535.4477-.03.3397-.332.592-.673.5622-.341-.0299-.595-.3308-.565-.6705.024-.2713-.177-.5101-.449-.5339l-2.224-.1945c-.271-.0238-.511.1768-.535.4478-.03.3397-.331.592-.673.5621-.341-.0298-.594-.3307-.564-.6704.023-.2713-.178-.5101-.45-.5339l-2.223-.1945c-.272-.0238-.512.1767-.536.4477-.029.3397-.331.592-.672.5622s-.595-.3308-.565-.6705c.024-.2713-.178-.5101-.45-.5338l-2.223-.1946c-.272-.0237-.512.1768-.535.4478-.03.3397-.332.592-.673.5621-.341-.0298-.595-.3307-.565-.6704.024-.2713-.177-.5101-.449-.5339l-2.224-.1945c-.272-.0238-.511.1767-.535.4477-.03.3397-.331.592-.673.5622-.341-.0299-.595-.3308-.565-.6705.024-.2713-.177-.51-.449-.5339l-2.224-.1945c-.272-.0238-.511.1768-.535.4477-.03.3397-.332.592-.673.5622-.341-.0299-.595-.3308-.565-.6705.024-.2713-.178-.5101-.45-.5339l-2.223-.1945c-.272-.0238-.512.1764-.535.4474l-.238 2.7179c-.024.2713.177.5101.449.5339.342.0299.595.3308.565.6705-.029.3397-.331.5917-.672.5618-.272-.0238-.512.1771-.536.4477l-.194 2.2146c-.023.2709.178.51.45.5338.341.0299.595.3305.565.6705-.03.3397-.331.592-.673.5622-.272-.0238-.512.1767-.535.4477l-.194 2.2142c-.024.2709.178.5101.45.5339.341.0298.594.3307.565.6704-.03.3401-.332.592-.673.5622-.272-.0238-.512.1767-.536.4477l-.193 2.2145c-.024.2707.177.5098.449.5336.341.0298.595.3304.565.6701s-.331.592-.673.5622c-.272-.0238-.511.1767-.535.4477l-.238 2.7179c-.024.2713.178.5101.45.5339l2.225.1947c.272.0238.512-.1767.536-.4476.03-.3397.332-.5921.673-.5622s.595.3308.565.6705c-.024.2713.178.51.45.5338l2.223.1945c.272.0238.512-.1767.535-.4477.03-.3397.332-.592.673-.5621.341.0298.595.3307.565.6704-.024.2713.178.5101.45.5339l2.223.1945c.272.0238.512-.1767.535-.4477.03-.3397.332-.592.673-.5622.341.0299.595.3308.565.6705-.024.2713.177.5101.449.5339l2.224.1945c.271.0238.511-.1768.535-.4477.03-.3397.332-.592.673-.5622s.594.3307.565.6704c-.024.2713.177.5101.449.5339l2.223.1945c.272.0238.512-.1767.536-.4477.029-.3397.331-.592.672-.5622.342.0299.595.3308.565.6705-.024.2713.178.5101.45.5339l2.223.1945c.272.0238.512-.1768.535-.4477.03-.3397.332-.5921.673-.5622.341.0298.595.3307.565.6704-.024.2713.177.5101.449.5339zm1.817-.8299-1.316-.115c-.152-.6602-.716-1.1783-1.429-1.2406-.713-.0624-1.359.3498-1.624.9735l-1.392-.1218c-.152-.6602-.718-1.1784-1.43-1.2408-.713-.0623-1.359.3499-1.624.9736l-1.392-.1219c-.153-.6601-.718-1.1783-1.43-1.2406-.713-.0624-1.36.3498-1.624.9735l-1.393-.1219c-.152-.6601-.717-1.1783-1.43-1.2407-.713-.0623-1.359.3499-1.624.9735l-1.392-.1218c-.152-.6601-.718-1.1783-1.43-1.2407-.713-.0623-1.36.3499-1.624.9735l-1.393-.1218c-.152-.6601-.717-1.1783-1.43-1.2407-.712-.0623-1.359.3499-1.623.9735l-1.316-.115.159-1.8138c.663-.1511 1.183-.7133 1.245-1.4232.062-.71-.353-1.3539-.979-1.6178l.121-1.3871c.663-.1511 1.183-.7136 1.245-1.4236.062-.7099-.352-1.3538-.979-1.6181l.122-1.3867c.663-.1515 1.183-.7136 1.245-1.4236.062-.7099-.353-1.3542-.979-1.6181l.121-1.387c.663-.1512 1.183-.7133 1.245-1.4233.062-.7099-.353-1.3539-.979-1.6178l.159-1.8137 1.314.115c.153.6601.718 1.1783 1.43 1.2407.713.0623 1.36-.3499 1.624-.9736l1.393.1219c.152.6601.717 1.1783 1.43 1.2407.712.0623 1.359-.3499 1.623-.9736l1.393.1219c.152.6601.717 1.1783 1.43 1.2407.713.0623 1.359-.3499 1.624-.9735l1.392.1218c.153.6601.718 1.1784 1.431 1.2407.712.0623 1.359-.3499 1.623-.9735l1.393.1218c.152.6601.717 1.1783 1.43 1.2407s1.359-.3499 1.624-.9735l1.392.1218c.152.6601.717 1.1783 1.43 1.2407s1.359-.3499 1.624-.9735l1.315.1151-.158 1.8137c-.663.1512-1.183.7133-1.245 1.4233-.062.7099.353 1.3539.979 1.6178l-.122 1.387c-.662.1511-1.182.7136-1.245 1.4236-.062.7099.353 1.3539.979 1.6181l-.121 1.3867c-.663.1515-1.183.7136-1.245 1.4236s.353 1.3542.979 1.6181l-.122 1.3871c-.662.1511-1.182.7133-1.244 1.4232-.063.71.352 1.3539.978 1.6178zm-1.511-16.7774c.024-.2713-.177-.5101-.45-.534l-21.018-1.8388c-.272-.0238-.512.1764-.535.4477l-1.145 13.084c-.024.271.177.5101.449.5339l21.019 1.8389c.272.0238.512-.1764.535-.4477zm-9.972 4.4798-.241-.2872c-.064-.0762-.095-.1746-.087-.2737.009-.0991.057-.1907.133-.2546l4.182-3.5086c.076-.0639.174-.095.273-.0863.099.0086.191.0563.255.1325l.241.2872c.032.0377.055.0813.07.1282.015.047.02.0964.016.1455-.004.049-.018.0968-.041.1404-.023.0437-.054.0825-.091.1142l-4.182 3.5086c-.038.0316-.081.0556-.128.0704s-.097.0202-.146.0159-.097-.0182-.14-.0409c-.044-.0228-.083-.0539-.114-.0916zm-1.525-2.6868c-.044-.0227-.083-.0538-.115-.0916l-.241-.2871c-.063-.0762-.095-.1746-.086-.2737s.057-.1907.133-.2546l1.338-1.1225c.076-.064.174-.095.273-.0863.099.0086.191.0563.255.1325l.241.2872c.032.0377.055.0813.07.1282.015.047.02.0964.016.1455-.004.049-.018.0968-.041.1404-.022.0437-.054.0825-.091.1141l-1.338 1.1226c-.038.0316-.082.0555-.129.0704-.046.0148-.096.0202-.145.0159s-.097-.0182-.14-.041zm5.393 2.7591c.099.0086.191.0563.255.1325l.241.2872c.031.0377.055.0813.07.1282.015.047.02.0964.016.1455-.004.049-.018.0968-.041.1404-.023.0437-.054.0825-.092.1141l-1.337 1.1226c-.038.0316-.082.0555-.129.0704-.047.0148-.096.0202-.145.0159s-.097-.0182-.141-.041c-.043-.0227-.082-.0538-.114-.0916l-.241-.2871c-.064-.0762-.095-.1746-.086-.2737s.056-.1907.132-.2546l1.338-1.1225c.077-.064.175-.095.274-.0863zm-5.38.9408 2.415.5712c.434.1015.564.6588.219.9415l-1.923 1.5726.204 2.4786c.008.1-.012.2003-.057.2897-.046.0893-.116.164-.202.2158-.086.0517-.185.0783-.285.0768-.101-.0015-.198-.031-.283-.0853l-2.089-1.3447-2.291.9615c-.406.174-.841-.1982-.728-.6331l.634-2.4052-1.621-1.8828c-.293-.3384-.068-.8646.376-.8893l2.479-.1431 1.289-2.1269c.234-.3843.801-.3299.962.0842z" fill="#2dc98b" fill-rule="evenodd"/></svg>