<svg fill="none" height="107" viewBox="0 0 172 107" width="172" xmlns="http://www.w3.org/2000/svg" xmlns:xlink="http://www.w3.org/1999/xlink"><filter id="a" color-interpolation-filters="sRGB" filterUnits="userSpaceOnUse" height="107" width="172" x="0" y="0"><feFlood flood-opacity="0" result="BackgroundImageFix"/><feColorMatrix in="SourceAlpha" type="matrix" values="0 0 0 0 0 0 0 0 0 0 0 0 0 0 0 0 0 0 127 0"/><feOffset dy="2"/><feGaussianBlur stdDeviation="3"/><feColorMatrix type="matrix" values="0 0 0 0 0.145098 0 0 0 0 0.145098 0 0 0 0 0.14902 0 0 0 0.08 0"/><feBlend in2="BackgroundImageFix" mode="normal" result="effect1_dropShadow"/><feBlend in="SourceGraphic" in2="effect1_dropShadow" mode="normal" result="shape"/></filter><mask id="b" height="95" maskUnits="userSpaceOnUse" width="160" x="6" y="4"><rect fill="#fff" height="95" rx="10" width="160" x="6" y="4"/></mask><g filter="url(#a)"><rect fill="#fff" height="95" rx="10" width="160" x="6" y="4"/></g><g mask="url(#b)"><path clip-rule="evenodd" d="m102.706-87 2.828 2.8284-169.7056 169.7057-2.8285-2.8285zm45.254 45.2548 2.829 2.8285-169.7058 169.7057-2.8284-2.829zm48.084 48.08329-2.829-2.82842-169.7054 169.70533 2.8284 2.829zm-82.025-82.02439 2.829 2.8284-169.7059 169.7057-2.8284-2.8285zm48.084 48.0833-2.829-2.8285-169.7055 169.7055 2.82841 2.829zm42.426 42.4264 2.828 2.8284-169.7053 169.7052-2.8284-2.828zm-76.368-76.3676-2.828-2.8284-169.7056 169.7056 2.8284 2.828zm42.427 42.4264 2.828 2.8285-169.70538 169.7053-2.828428-2.828zm48.083 48.0833-2.828-2.8284-169.706 169.7059 2.8285 2.828zm-82.024-82.0244 2.828 2.8285-169.7055 169.7054-2.8284-2.828zm48.083 48.08329-2.828-2.82843-169.7061 169.70604 2.8284 2.828z" fill="#fd7471" fill-rule="evenodd"/><path clip-rule="evenodd" d="m108.362-81.3431 2.829 2.8284-169.7059 169.7056-2.8284-2.8284zm45.255 45.2548 2.829 2.8284-169.7061 169.7059-2.8284-2.829zm48.083 48.0833-2.828-2.82847-169.7057 169.70547 2.8285 2.829zm-82.024-82.0244 2.828 2.8284-169.7052 169.706-2.8284-2.8288zm48.083 48.0832-2.828-2.8284-169.70578 169.7056 2.82843 2.828zm42.427 42.4264 2.828 2.8285-169.7055 169.7053-2.8284-2.828zm-76.368-76.3675-2.828-2.8284-169.7059 169.7057 2.8284 2.828zm42.427 42.4264 2.828 2.8284-169.70564 169.7055-2.82843-2.828zm48.083 48.0833-2.829-2.8285-169.7052 169.7061 2.8284 2.828zm-82.025-82.0244 2.829 2.8284-169.7058 169.7056-2.8284-2.828zm48.084 48.083246-2.829-2.828426-169.7054 169.70518 2.8285 2.829z" fill="#007cff" fill-rule="evenodd"/><rect fill="#fff" height="84" rx="5" width="152" x="10" y="7"/><path clip-rule="evenodd" d="m34.7543 18.5576c-.337-.0126-1.414 3.986-1.414 3.986l-4.8059.2521s-1.487-3.5638-2.1536-3.5055c-.2254.0197-.3315.8537-.4936 2.1284-.2773 2.1797-.7185 5.6482-2.2002 8.5369-.3867.7539-.3955 1.6982.2434 2.2546 4.4457 3.8724 13.389 1.2892 14.3099-.1923.9933-1.598-3.1499-13.4474-3.486-13.4602zm-6.5055 12.4912c-1.1271.0986-2.0807-1.0572-2.1954-2.3687-.1148-1.3116.6175-3.0762 1.7446-3.1748s2.1656 1.6373 2.2803 2.9488c.1156 1.3107-.7016 2.496-1.8295 2.5947zm6.1211-.5355c-1.1271.0986-2.0798-1.0573-2.1945-2.3688-.1147-1.3116.6175-3.0762 1.7446-3.1748s2.1656 1.6373 2.2803 2.9488c.1138 1.3108-.7033 2.4961-1.8304 2.5948zm-5.4075-1.7095c.085.9709-.2403 1.7922-.7259 1.8347-.4855.0425-.9466-.71-1.0316-1.681-.0849-.9704.2385-1.7915.7241-1.8339.4855-.0425.9485.7098 1.0334 1.6802zm5.4252 1.2965c.4856-.0424.8109-.8637.7259-1.8347-.0849-.9704-.5479-1.7227-1.0334-1.6802s-.809.8636-.7241 1.834c.085.9709.5461 1.7234 1.0316 1.6809z" fill="#8e8e93" fill-rule="evenodd"/><g fill="#c7c7cc"><rect height="1" rx=".5" width="32" x="70" y="50"/><rect height="1" rx=".5" width="28" x="70" y="45"/><rect height="1" rx=".5" width="24" x="70" y="55"/></g><path clip-rule="evenodd" d="m156.237 34.9613-2.226.1556c-.272.0191-.508-.1853-.527-.457-.024-.3401-.321-.5977-.663-.5738s-.6.3203-.577.6605c.019.2713-.186.5069-.458.526l-2.227.1556c-.272.0191-.508-.1853-.527-.457-.024-.3401-.321-.5977-.663-.5738s-.6.3203-.576.6605c.019.2713-.187.5069-.459.526l-2.226.1556c-.273.0191-.509-.1853-.528-.457-.024-.3401-.321-.5977-.662-.5738-.342.0239-.601.3203-.577.6605.019.2713-.187.5069-.459.526l-2.226.1556c-.272.0191-.509-.1853-.528-.457-.023-.3401-.321-.5977-.663-.5738-.341.0239-.6.3203-.576.6605.019.2713-.186.5069-.459.526l-2.226.1556c-.272.0191-.508-.1853-.527-.457-.024-.3401-.322-.5977-.663-.5738-.342.0239-.601.3204-.577.6605.019.2714-.186.5069-.459.526l-2.226.1557c-.273.019-.509-.1853-.528-.457-.024-.3402-.321-.5977-.663-.5738-.341.0239-.6.3203-.576.6605.019.2713-.187.5069-.459.5259l-2.229.1559c-.273.019-.509-.1853-.528-.457l-.19-2.7217c-.019-.2713.186-.5069.459-.5259.342-.0239.6-.3204.576-.6605-.023-.3402-.321-.5974-.663-.5735-.272.019-.508-.1857-.527-.4567l-.155-2.2176c-.019-.2713.186-.5069.459-.5259.342-.0239.6-.32.576-.6605-.023-.3402-.321-.5977-.663-.5738-.272.019-.508-.1857-.527-.457l-.155-2.2173c-.019-.2713.186-.5069.459-.5259.341-.0239.6-.3203.576-.6605-.024-.3405-.321-.5977-.663-.5738-.272.019-.508-.1857-.527-.457l-.155-2.2176c-.019-.2707.186-.5069.458-.5259.342-.024.601-.32.577-.6602s-.321-.5977-.663-.5738c-.272.019-.508-.1857-.527-.457l-.191-2.7217c-.019-.2713.187-.5066.459-.5256l2.226-.1557c.273-.019.509.1853.528.457.024.3402.321.5977.663.5738.341-.0239.6-.3203.576-.6605-.019-.2713.187-.5069.459-.5259l2.227-.1557c.272-.0191.508.1853.527.457.024.3401.321.5977.663.5738s.6-.3204.577-.6605c-.019-.2714.186-.5069.458-.526l2.227-.1556c.272-.0191.508.1853.527.4569.024.3402.321.5978.663.5739.341-.0239.6-.3204.576-.6605-.019-.2714.187-.5069.459-.526l2.226-.1556c.273-.0191.509.1853.528.4569.024.3402.321.5977.663.5739.341-.0239.6-.3204.576-.6605-.019-.2714.187-.5069.459-.526l2.226-.1556c.273-.0191.509.1853.528.4569.024.3402.321.5978.662.5739.342-.0239.601-.3204.577-.6605-.019-.2714.186-.5069.459-.526l2.226-.1556c.272-.0191.509.1853.528.4569.023.3402.321.5978.663.5739.341-.0239.6-.3204.576-.6605-.019-.2714.186-.5069.459-.526l2.226-.1556c.275-.0193.511.1851.53.4567l.191 2.7217c.019.271-.187.5069-.459.526-.342.0238-.601.3203-.577.6605.024.3401.322.5973.663.5735.273-.0191.509.1859.528.4569l.155 2.2176c.019.2714-.187.5069-.459.526-.342.0239-.6.32-.577.6605.024.3401.322.5977.663.5738.273-.0191.509.1853.528.457l.155 2.2172c.019.2714-.187.5069-.459.526-.341.0239-.6.3203-.577.6605.024.3405.322.5977.663.5738.273-.019.509.1853.528.457l.155 2.2176c.019.271-.186.5069-.459.5259-.341.0239-.6.32-.577.6602.024.3402.322.5977.663.5738.273-.019.509.1853.528.457l.19 2.7217c.019.271-.186.5062-.459.5253zm-1.879-.856 1.317-.0921-.127-1.8163c-.659-.1627-1.17-.7338-1.219-1.4447-.05-.711.375-1.3475 1.006-1.6005l-.097-1.3889c-.659-.1628-1.17-.7342-1.22-1.4451-.049-.7113.376-1.3475 1.007-1.6008l-.097-1.3886c-.66-.1631-1.17-.7339-1.22-1.4451-.049-.711.376-1.3479 1.007-1.6008l-.097-1.389c-.66-.1627-1.17-.7338-1.22-1.4448-.049-.7109.376-1.3475 1.007-1.6004l-.127-1.8162-1.317.0921c-.164.6573-.738 1.1656-1.451 1.2155-.714.0499-1.353-.3735-1.607-1.0017l-1.394.0975c-.164.6574-.738 1.1656-1.452 1.2156-.714.0499-1.353-.3736-1.607-1.0017l-1.394.0974c-.164.6574-.738 1.1657-1.451 1.2156-.714.0499-1.353-.3735-1.607-1.0017l-1.394.0975c-.164.6574-.738 1.1656-1.452 1.2156-.714.0499-1.353-.3736-1.607-1.0018l-1.394.0975c-.163.6574-.738 1.1657-1.451 1.2156-.714.0499-1.353-.3735-1.607-1.0017l-1.394.0975c-.164.6574-.738 1.1656-1.452 1.2155-.713.0499-1.352-.3735-1.606-1.0017l-1.317.0921.127 1.8162c.66.1627 1.17.7338 1.22 1.4448.05.7109-.376 1.3475-1.007 1.6004l.097 1.389c.66.1627 1.17.7341 1.22 1.4451.05.7112-.376 1.3475-1.007 1.6008l.098 1.3886c.659.163 1.17.7338 1.219 1.4451.05.7109-.376 1.3478-1.007 1.6008l.098 1.3889c.659.1627 1.17.7339 1.219 1.4448.05.7109-.376 1.3475-1.006 1.6004l.127 1.8163 1.317-.0921c.164-.6574.738-1.1657 1.451-1.2156.714-.0499 1.353.3736 1.607 1.0017l1.394-.0975c.164-.6573.738-1.1656 1.452-1.2155.713-.0499 1.353.3735 1.606 1.0017l1.394-.0975c.164-.6574.738-1.1656 1.452-1.2155.713-.0499 1.353.3735 1.606 1.0017l1.395-.0975c.164-.6574.738-1.1657 1.451-1.2156.714-.0499 1.353.3735 1.607 1.0017l1.394-.0975c.164-.6574.738-1.1656 1.452-1.2155s1.353.3735 1.606 1.0017l1.395-.0975c.164-.6574.737-1.1657 1.451-1.2156.713-.0498 1.352.3736 1.606 1.0018zm-3.327-16.8837c.273-.0191.509.1853.528.4569l.916 13.102c.019.2717-.186.5069-.459.526l-21.047 1.4718c-.273.019-.509-.1857-.528-.457l-.916-13.102c-.019-.2717.186-.5069.459-.526zm-8.578 1.6621c-1.721.1203-3.019 1.6139-2.899 3.3342.073 1.0321-.707 1.9283-1.739 2.0005l-.007.0005-2.365.1648c-.274.0192-.483.2594-.464.5333l.008.0673c.373 2.1533 2.017 3.8419 4.065 4.3728l.081 1.1565c.024.344.323.6037.667.5796.344-.024.604-.3227.58-.6668l-.063-.8949c.166.0035.334-.0007.5-.0124.167-.0117.334-.0308.497-.0573l.063.8949c.024.3441.322.6037.666.5797.344-.0241.604-.3228.58-.6669l-.081-1.1564c2.123-.8803 3.545-3.0433 3.376-5.4619l-.035-.4984.745-.0521c.065-.0046.128-.0337.175-.0849.09-.1038.079-.2635-.025-.3542-.072-.0602-.977-1.0066-.977-1.0066s.764-1.0632.827-1.1328c.09-.1037.079-.2634-.025-.3542-.053-.0437-.119-.0643-.184-.0598l-1.199.085c-.609-.859-1.64-1.3883-2.767-1.3095zm-1.533 5.7664c.032.0279.062.0581.084.0916l.044.0668c.405.7386.333 1.6806-.251 2.3527-.575.6638-1.482.8705-2.261.5862l-.083-.0367c-.165-.0735-.284-.2333-.297-.4251-.011-.1468.042-.2836.136-.3827.047-.0485 1.918-2.2032 1.918-2.2032.183-.2104.502-.2327.71-.0496zm2.385-4.3231c.344-.0241.643.2356.667.5796.024.3441-.235.6428-.579.6669-.345.024-.643-.2357-.667-.5797s.235-.6428.579-.6668z" fill="#facd51" fill-rule="evenodd"/><rect height="94" rx="9.5" stroke="#8e8e93" width="159" x="6.5" y="4.5"/></g></svg>