<svg fill="none" height="108" viewBox="0 0 173 108" width="173" xmlns="http://www.w3.org/2000/svg" xmlns:xlink="http://www.w3.org/1999/xlink"><filter id="a" color-interpolation-filters="sRGB" filterUnits="userSpaceOnUse" height="107" width="172" x=".817" y=".389"><feFlood flood-opacity="0" result="BackgroundImageFix"/><feColorMatrix in="SourceAlpha" type="matrix" values="0 0 0 0 0 0 0 0 0 0 0 0 0 0 0 0 0 0 127 0"/><feOffset dy="2"/><feGaussianBlur stdDeviation="3"/><feColorMatrix type="matrix" values="0 0 0 0 0.145098 0 0 0 0 0.145098 0 0 0 0 0.14902 0 0 0 0.08 0"/><feBlend in2="BackgroundImageFix" mode="normal" result="effect1_dropShadow"/><feBlend in="SourceGraphic" in2="effect1_dropShadow" mode="normal" result="shape"/></filter><filter id="b" color-interpolation-filters="sRGB" filterUnits="userSpaceOnUse" height="38" width="81" x="21.817" y="44.389"><feFlood flood-opacity="0" result="BackgroundImageFix"/><feBlend in="SourceGraphic" in2="BackgroundImageFix" mode="normal" result="shape"/><feColorMatrix in="SourceAlpha" result="hardAlpha" type="matrix" values="0 0 0 0 0 0 0 0 0 0 0 0 0 0 0 0 0 0 127 0"/><feOffset dy="1"/><feComposite in2="hardAlpha" k2="-1" k3="1" operator="arithmetic"/><feColorMatrix type="matrix" values="0 0 0 0 0.898039 0 0 0 0 0.898039 0 0 0 0 0.917647 0 0 0 1 0"/><feBlend in2="shape" mode="normal" result="effect1_innerShadow"/></filter><mask id="c" height="85" maskUnits="userSpaceOnUse" width="151" x="11" y="6"><rect fill="#fff" height="84" rx="4" width="150" x="11.817" y="6.389"/></mask><mask id="d" height="39" maskUnits="userSpaceOnUse" width="82" x="21" y="44"><rect fill="#fff" height="38" rx="4" width="81" x="21.817" y="44.389"/></mask><g filter="url(#a)"><rect fill="#e3f2ff" fill-opacity=".78" height="95" rx="10" width="160" x="6.817" y="4.389"/><rect height="93" rx="9" stroke="#007cff" stroke-width="2" width="158" x="7.817" y="5.389"/></g><g mask="url(#c)"><rect fill="#fff" height="84" rx="5" width="150" x="11.817" y="6.389"/><circle cx="114.817" cy="5.389" fill="#e3f2ff" fill-opacity=".78" r="76"/></g><g mask="url(#d)"><g filter="url(#b)"><rect fill="#fff" height="38" rx="4" width="81" x="21.817" y="44.389"/></g><circle cx="106.817" cy="17.389" fill="#e3f2ff" fill-opacity=".78" opacity=".5" r="76"/><g fill="#c7c7cc"><rect height="1" rx=".5" width="32" x="30.817" y="62.389"/><rect height="1" rx=".5" width="28" x="30.817" y="57.389"/><rect height="1" rx=".5" width="24" x="30.817" y="67.389"/></g></g><g clip-rule="evenodd" fill="#007cff" fill-rule="evenodd"><path d="m20.9989 21.4697c-.1005-1.1492.7496-2.1624 1.8988-2.2629l15.7623-1.379c1.1492-.1006 2.1623.7496 2.2628 1.8988l.8807 10.066c.1005 1.1492-.7496 2.1623-1.8988 2.2628l-15.7622 1.379c-1.1492.1006-2.1624-.7495-2.2629-1.8987zm1.3333.26c-.0349-.3989.3736-.687.7376-.5203l7.4805 3.4264c.5019.2299 1.0878.1786 1.5421-.135l6.7718-4.6732c.3296-.2275.7819-.0146.8168.3842l.8139 9.3021c.0565.6464-.4217 1.2163-1.0681 1.2729l-15.008 1.313c-.6464.0565-1.2163-.4216-1.2728-1.0681zm9.5025 8.8564c2.1225-.1857 3.7082-1.9526 3.5345-3.9382-.0208-.2377-.232-.4132-.4705-.3923l-6.8337.5978c-.2387.0209-.4157.2303-.3949.4681.1738 1.9859 2.05 3.4496 4.1646 3.2646zm-.1911-2.037c.7609-.0666 1.4004.1297 1.4274.4386.0271.3089-.5686.6133-1.3296.6799-.7612.0665-1.4004-.1297-1.4274-.4387-.0271-.3089.5684-.6132 1.3296-.6798zm-6.5428-3.2355c-.4883.0428-.8201.8109-.741 1.7161.0792.9052.5394 1.604 1.0278 1.5612.4883-.0427.8201-.8108.7409-1.716-.0791-.9052-.5393-1.604-1.0277-1.5613zm11.7265.6253c-.0792-.9052.2526-1.6733.741-1.716s.9485.6561 1.0277 1.5613-.2526 1.6733-.741 1.716-.9485-.6561-1.0277-1.5613z"/><path d="m128.998 13.8949c.023-.2713-.178-.5101-.45-.5339l-2.223-.1945c-.272-.0238-.512.1764-.535.4474l-.238 2.7179c-.024.2713.177.5101.449.5339.342.0299.595.3308.565.6705-.029.3397-.331.5917-.672.5618-.272-.0238-.512.1771-.536.4477l-.194 2.2145c-.023.271.178.5101.45.5339.341.0299.595.3304.565.6705-.03.3397-.332.592-.673.5621-.272-.0238-.512.1768-.535.4478l-.194 2.2142c-.024.2709.177.51.449.5338.342.0299.595.3308.566.6705-.03.34-.332.592-.673.5622-.272-.0238-.512.1767-.536.4477l-.194 2.2145c-.023.2706.178.5098.45.5336.341.0298.595.3304.565.6701s-.331.592-.673.5621c-.272-.0237-.511.1768-.535.4478l-.238 2.7179c-.024.2713.178.5101.45.5339l2.226.1948c.272.0238.512-.1767.536-.4477.029-.3397.331-.592.672-.5622s.595.3308.565.6705c-.023.2713.178.5101.45.5338l2.223.1946c.272.0237.511-.1768.535-.4478.03-.3397.332-.592.673-.5621.341.0298.595.3307.565.6704-.024.2713.178.5101.45.5339l2.223.1945c.272.0238.511-.1767.535-.4477.03-.3397.332-.592.673-.5622s.594.3308.565.6705c-.024.2713.177.51.449.5338l2.223.1945c.272.0238.512-.1767.536-.4477.03-.3397.332-.592.673-.5621.341.0298.594.3307.564.6704-.023.2713.178.5101.45.5339l2.223.1945c.272.0238.512-.1768.536-.4477.029-.3397.331-.592.672-.5622.341.0299.595.3308.565.6705-.024.2713.178.51.45.5338l2.223.1945c.272.0238.511-.1767.535-.4477.03-.3397.332-.592.673-.5621.341.0298.595.3307.565.6704-.024.2713.177.5101.449.5339l2.223.1945c.272.0238.512-.1764.536-.4471l.238-2.7179c.023-.2713-.178-.5101-.45-.5339-.341-.0298-.595-.3307-.565-.6705.03-.3397.332-.5916.673-.5618.272.0238.512-.1771.535-.4477l.194-2.2145c.024-.2713-.178-.5101-.449-.5339-.342-.0298-.595-.3304-.566-.6705.03-.3397.332-.592.673-.5621.272.0238.512-.1768.536-.4477l.193-2.2142c.024-.2713-.177-.5101-.449-.5339-.341-.0299-.595-.3308-.565-.6705.03-.34.332-.592.673-.5621.272.0237.511-.1768.535-.4478l.194-2.2145c.024-.271-.178-.5101-.45-.5339-.341-.0298-.594-.3304-.565-.6701.03-.3397.332-.592.673-.5622.272.0238.512-.1767.536-.4477l.237-2.7179c.024-.2713-.177-.5101-.453-.5342l-2.223-.1945c-.272-.0238-.512.1767-.535.4477-.03.3397-.332.592-.673.5622-.341-.0299-.595-.3308-.565-.6705.024-.2713-.177-.5101-.449-.5339l-2.224-.1945c-.272-.0238-.511.1768-.535.4477-.03.3397-.332.5921-.673.5622-.341-.0298-.594-.3307-.565-.6704.024-.2713-.177-.5101-.449-.5339l-2.223-.1945c-.272-.0238-.512.1767-.536.4477-.029.3397-.331.592-.672.5622-.341-.0299-.595-.3308-.565-.6705.023-.2713-.178-.5101-.45-.5339l-2.223-.1945c-.272-.0238-.512.1768-.535.4477-.03.3397-.332.592-.673.5622s-.595-.3307-.565-.6704c.024-.2713-.178-.5101-.449-.5339l-2.223-.1945c-.273-.0238-.512.1767-.536.4477-.03.3397-.332.592-.673.5622-.341-.0299-.595-.3308-.565-.6705.024-.2713-.177-.5101-.449-.5339l-2.223-.1945c-.272-.0237-.512.1768-.536.4478-.029.3397-.332.5919-.673.5621s-.594-.3307-.564-.6704zm-2.266.296 1.314.1149c.153.6602.717 1.1784 1.43 1.2407.713.0624 1.36-.3498 1.624-.9735l1.393.1219c.152.6601.717 1.1783 1.43 1.2407.712.0623 1.359-.3499 1.624-.9736l1.392.1219c.152.6601.717 1.1783 1.43 1.2406.713.0624 1.359-.3498 1.624-.9734l1.392.1218c.153.6601.718 1.1783 1.431 1.2407.712.0623 1.359-.3499 1.623-.9735l1.393.1218c.152.6601.717 1.1783 1.43 1.2407.713.0623 1.359-.3499 1.624-.9735l1.392.1218c.152.6601.717 1.1783 1.43 1.2407s1.359-.3499 1.624-.9735l1.315.115-.158 1.8138c-.663.1511-1.183.7133-1.245 1.4232-.062.71.352 1.3539.979 1.6178l-.122 1.3871c-.663.1511-1.183.7136-1.245 1.4236-.062.7099.353 1.3538.979 1.6181l-.121 1.3867c-.663.1515-1.183.7136-1.245 1.4236-.062.7099.353 1.3542.979 1.6181l-.122 1.387c-.662.1512-1.182.7133-1.244 1.4233-.063.7099.352 1.3539.978 1.6178l-.158 1.8137-1.316-.1151c-.152-.6601-.716-1.1782-1.429-1.2406-.713-.0623-1.359.3499-1.624.9735l-1.392-.1218c-.152-.6601-.718-1.1783-1.43-1.2407-.713-.0623-1.359.3499-1.624.9735l-1.392-.1218c-.153-.6601-.718-1.1783-1.43-1.2407-.713-.0623-1.36.3499-1.624.9735l-1.393-.1218c-.152-.6601-.718-1.1784-1.43-1.2407-.713-.0623-1.359.3499-1.624.9735l-1.392-.1218c-.152-.6601-.718-1.1783-1.43-1.2407-.713-.0623-1.359.3499-1.624.9736l-1.393-.1219c-.152-.6601-.717-1.1783-1.43-1.2407s-1.359.3499-1.624.9735l-1.315-.1151.159-1.8137c.663-.1511 1.183-.7133 1.245-1.4233.062-.7099-.353-1.3538-.979-1.6177l.121-1.3871c.663-.1511 1.183-.7136 1.245-1.4236.062-.7099-.353-1.3539-.979-1.6181l.122-1.3867c.662-.1515 1.182-.7136 1.245-1.4236.062-.7099-.353-1.3542-.979-1.6181l.121-1.387c.663-.1512 1.183-.7134 1.245-1.4233.062-.71-.353-1.3539-.979-1.6178zm24.659 5.6185c.024-.2713-.177-.5101-.45-.5339l-21.018-1.8388c-.272-.0238-.512.1764-.536.4477l-1.144 13.084c-.024.2709.177.5101.449.5339l21.019 1.8389c.272.0238.512-.1765.535-.4478zm-16.46 5.7408 2.954 3.5209c.177.2115.493.2391.704.0616l6.23-5.227c.211-.1775.239-.4929.061-.7044l-.643-.766c-.177-.2116-.492-.2392-.704-.0617l-5.08 4.2628-1.99-2.3718c-.178-.2115-.493-.2391-.705-.0616l-.766.6428c-.211.1775-.239.4929-.061.7044z"/></g></svg>