<svg fill="none" height="140" viewBox="0 0 200 140" width="200" xmlns="http://www.w3.org/2000/svg" xmlns:xlink="http://www.w3.org/1999/xlink"><filter id="a" color-interpolation-filters="sRGB" filterUnits="userSpaceOnUse" height="110.792" width="175" x="0" y="15"><feFlood flood-opacity="0" result="BackgroundImageFix"/><feBlend in="SourceGraphic" in2="BackgroundImageFix" mode="normal" result="shape"/><feColorMatrix in="SourceAlpha" result="hardAlpha" type="matrix" values="0 0 0 0 0 0 0 0 0 0 0 0 0 0 0 0 0 0 127 0"/><feOffset dy="1"/><feComposite in2="hardAlpha" k2="-1" k3="1" operator="arithmetic"/><feColorMatrix type="matrix" values="0 0 0 0 0.145098 0 0 0 0 0.145098 0 0 0 0 0.14902 0 0 0 0.08 0"/><feBlend in2="shape" mode="normal" result="effect1_innerShadow"/></filter><g filter="url(#a)"><path clip-rule="evenodd" d="m138.518 16.2133-1.4-.1034-.921-1.0587c-.023-.0229-.052-.039-.083-.0465-.032-.0075-.065-.006-.096.0042-.03.0102-.057.0288-.078.0536-.021.0249-.034.055-.039.087l-.103 1.3998-1.059.9216c-.023.0228-.039.0516-.046.0831-.008.0314-.006.0644.004.0951.01.0306.029.0579.053.0786.025.0207.055.0341.087.0387l1.4.1034.922 1.0586c.023.023.051.039.083.0465.031.0075.064.006.095-.0042s.058-.0288.079-.0536c.02-.0248.034-.055.038-.087l.104-1.3998 1.058-.9216c.023-.0228.039-.0516.047-.0831.007-.0314.006-.0644-.004-.095-.011-.0307-.029-.058-.054-.0787s-.055-.0341-.087-.0386zm-10.499 26.0111 3.777-.1738c.087.0018.172.0279.245.0753.073.0475.131.1143.168.1931.038.0788.052.1663.042.2529s-.043.1687-.097.2371l-2.535 2.8049.174 3.7765c-.002.0871-.028.1719-.075.245-.048.0731-.115.1315-.193.1687-.079.0371-.167.0516-.253.0418-.087-.0099-.169-.0436-.237-.0976l-2.805-2.5345-3.777.1738c-.087-.0019-.172-.028-.245-.0754s-.131-.1142-.168-.193c-.038-.0788-.052-.1664-.042-.2529.01-.0866.043-.1687.097-.2371l2.535-2.805-.174-3.7764c.002-.0871.028-.1719.075-.245.048-.0731.115-.1315.193-.1687.079-.0372.167-.0517.253-.0418.087.0098.169.0436.237.0975zm-30.9865 14.0806c.0604.2124.0603.4373-.0001.6497-.0604.2123-.1788.4036-.3419.5524s-.3645.2493-.5814.2901l-5.7034 1.0755-3.9162 4.283c-.1489.1629-.3403.2812-.5527.3414-.2123.0603-.4373.0602-.6496-.0002s-.4036-.1788-.5524-.3418c-.1488-.1631-.2493-.3643-.2901-.5813l-1.0751-5.7033-4.2822-3.9169c-.163-.1489-.2812-.3403-.3415-.5527-.0602-.2123-.0602-.4373.0003-.6496.0604-.2123.1787-.4036.3418-.5524.163-.1489.3643-.2493.5812-.2902l5.703-1.0756 3.9164-4.2824c.6074-.6637 1.8779-.3022 2.0449.5819l1.0747 5.7026 4.2827 3.9171c.163.1489.2813.3403.3416.5527zm-81.3214 16.9257c-4.9659.8756-9.38045 3.688-12.27266 7.8185-2.892208 4.1305-4.025124 9.2407-3.149518 14.2066l4.768798 27.0452c.19458 1.103.81956 2.084 1.73745 2.727s2.0535.895 3.15702.7l33.28641-5.869-5.5025-31.2062c-.8756-4.9658-3.688-9.3804-7.8185-12.2726s-9.2407-4.0251-14.2065-3.1495zm14.4371 21.0502c.0973.5518-.0286 1.1196-.35 1.5785-.3213.459-.8118.7715-1.3636.8687l-16.6432 2.9347c-.5517.0973-1.1195-.0286-1.5785-.3499-.45893-.3214-.77142-.8119-.86871-1.3637l-.73366-4.1608c-.09729-.5517.02859-1.1195.34994-1.5785.32136-.4589.81187-.7714 1.36363-.8687l16.6432-2.9347c.5518-.0972 1.1196.0286 1.5785.35.459.3214.7714.8119.8687 1.3636zm23.0101-27.6532-24.3316 4.2903c6.6286 3.104 11.7056 9.262 13.0702 17.0011l5.5025 31.2059 29.1256-5.135c1.1035-.195 2.0846-.82 2.7273-1.738s.8944-2.053.6999-3.157l-4.7688-27.0452c-.8756-4.9658-3.6881-9.3804-7.8186-12.2726s-9.2407-4.0251-14.2065-3.1495zm15.1708 25.2111c.0973.5517-.0286 1.1195-.35 1.5785-.3213.4589-.8118.7714-1.3636.8687l-4.1608.7337c-.5518.0973-1.1196-.0286-1.5785-.35-.459-.3213-.7714-.8119-.8687-1.3636l-1.1005-6.2412-7.2814 1.2839c-.2759.0486-.5598-.0143-.7893-.175s-.3857-.4059-.4343-.6818l-.3669-2.0804c-.0486-.2759.0143-.5598.175-.7892.1607-.2295.4059-.3858.6818-.4344l13.5226-2.3844c.5518-.0973 1.1196.0286 1.5785.3499.459.3214.7715.8119.8688 1.3637zm-55.3479 15.8652c.7665-.423 1.7315-.15 2.1553.61.7555 1.354 3.0391 2.711 7.1719 2.048 4.1329-.663 5.8775-2.666 6.1717-4.188.1651-.854.9962-1.415 1.8564-1.254.8602.162 1.4237.985 1.2586 1.839-.6423 3.323-3.9256 5.93-8.7883 6.71s-8.7967-.669-10.446-3.625c-.4238-.759-.1461-1.718.6204-2.14zm96.1758-16.698c-.088-.2024-.231-.3762-.413-.502-.181-.1259-.394-.1986-.614-.2102l-5.796-.3079-4.4506-3.724c-.6901-.5771-1.9014-.0498-1.9493.8485l-.3076 5.7951-3.7237 4.4514c-.1416.1693-.2334.3747-.2649.5932s-.0015.4414.0866.6438.2308.3763.4122.5021.3942.1986.6147.2103l5.7953.308 4.4513 3.7247c.169.141.374.233.593.265.218.031.441.001.644-.087.202-.088.376-.231.502-.412.126-.182.199-.394.21-.615l.307-5.7952 3.724-4.4517c.142-.1692.234-.3746.265-.5931.032-.2185.002-.4415-.086-.644zm-2.863-21.9016-2.875-1.3963-1.059-3.0153c-.029-.0677-.076-.1259-.137-.1682-.06-.0422-.131-.0669-.204-.0711-.074-.0042-.147.0122-.212.0473s-.118.0876-.155.1515l-1.396 2.8749-3.0155 1.0595c-.0677.029-.126.0763-.1682.1366-.0423.0603-.0669.1312-.0711.2048-.0042.0735.0122.1467.0473.2114.0351.0648.0876.1184.1515.155l2.875 1.3963 1.059 3.0153c.029.0677.077.1259.137.1682s.131.0669.205.0711c.073.0042.146-.0122.211-.0473s.119-.0876.155-.1515l1.396-2.8749 3.016-1.0594c.067-.0291.126-.0764.168-.1367s.067-.1312.071-.2047c.004-.0736-.012-.1468-.047-.2115-.035-.0648-.088-.1184-.152-.155zm11.77-9.099-1.164-.7835-.276-1.3762c-.009-.0312-.026-.0595-.049-.0815-.024-.0221-.053-.0372-.085-.0435s-.065-.0037-.095.0076-.057.0308-.077.0564l-.783 1.1646-1.376.2759c-.031.0085-.06.0255-.082.0492-.022.0236-.037.0529-.043.0846-.007.0318-.004.0646.007.0949.012.0303.031.0569.057.0767l1.164.7834.276 1.3763c.009.0312.026.0594.049.0815.024.0221.053.0371.085.0435.032.0063.065.0037.095-.0076s.057-.0309.077-.0564l.783-1.1647 1.376-.2759c.032-.0085.06-.0255.082-.0491s.037-.053.043-.0847c.007-.0317.004-.0646-.007-.0949-.012-.0303-.031-.0568-.057-.0766zm-53.9108-2.8563 1.3075.5105c.0292.0137.0541.0354.0717.0625.0177.0271.0274.0586.0282.0909.0007.0323-.0076.0642-.024.0921s-.0402.0507-.0688.0658l-1.2829.5695-.5104 1.3075c-.0138.0293-.0354.0542-.0626.0718-.0271.0177-.0585.0274-.0909.0281-.0323.0008-.0642-.0075-.0921-.0239s-.0506-.0402-.0657-.0689l-.5696-1.2828-1.3075-.5105c-.0293-.0137-.0541-.0354-.0718-.0625-.0176-.0271-.0274-.0586-.0281-.0909-.0007-.0324.0076-.0643.0239-.0921.0164-.0279.0403-.0507.0689-.0658l1.2829-.5695.5104-1.3075c.0138-.0293.0354-.0542.0625-.0718.0271-.0177.0586-.0274.0909-.0281.0324-.0008.0643.0075.0922.0239.0278.0164.0506.0402.0657.0688zm84.3198-9.1175 1.126.8374c.025.021.043.0484.053.0792s.011.0638.003.0951c-.008.0314-.024.06-.047.0826-.023.0225-.052.0382-.084.0452l-1.388.2109-.837 1.1265c-.021.0246-.048.0428-.079.0527s-.064.0109-.095.0031c-.032-.0078-.06-.0242-.083-.0474-.022-.0231-.038-.0521-.045-.0837l-.211-1.3877-1.126-.8374c-.025-.021-.043-.0484-.053-.0792s-.011-.0638-.003-.0952c.008-.0313.024-.0599.047-.0825s.052-.0382.084-.0452l1.388-.2109.837-1.1265c.021-.0246.048-.0428.079-.0527s.064-.011.095-.0031c.032.0078.06.0242.083.0474.022.0231.038.0521.045.0837zm26.482-13.1074-1.01-.975-.031-1.4033c-.003-.0322-.015-.0629-.034-.0888s-.046-.0458-.076-.0576-.063-.0149-.094-.0091c-.032.0058-.062.0204-.086.0421l-.975 1.0098-1.403.0311c-.032.0028-.063.0147-.089.0341s-.046.0456-.058.0757c-.011.0302-.014.063-.009.0948.006.0318.021.0614.043.0853l1.009.975.031 1.4033c.003.0322.015.063.034.0888.02.0259.046.0459.076.0576.03.0118.063.015.095.0091.032-.0058.061-.0204.085-.0421l.975-1.0097 1.404-.0311c.032-.0029.063-.0147.088-.0341.026-.0195.046-.0457.058-.0758s.015-.0629.009-.0948c-.006-.0318-.02-.0613-.042-.0853zm-71.746 7.9579-4.6327-1.2403c-.1046-.0357-.1972-.0998-.2673-.1852-.0702-.0854-.1151-.1887-.1298-.2982-.0147-.1096.0014-.221.0465-.3219.0452-.1009.1176-.1872.209-.2492l4.1423-2.4182 1.24-4.6331c.036-.1046.1-.1971.185-.2673.086-.0701.189-.1151.298-.1298.11-.0147.221.0014.322.0466.101.0451.188.1175.25.209l2.418 4.142 4.633 1.2403c.104.0357.197.0998.267.1852s.115.1887.13.2982c.015.1096-.001.221-.047.3219-.045.1009-.117.1872-.209.2492l-4.142 2.4182-1.24 4.6331c-.036.1046-.1.1971-.185.2673-.086.0701-.189.1151-.298.1298-.11.0147-.221-.0014-.322-.0466-.101-.0451-.187-.1175-.249-.209zm19.516 28.0239 3.429 3.353.076 4.7956c.01.1101.049.2155.115.3043.066.0889.155.1576.258.1985.102.0409.215.0524.323.0331.109-.0192.21-.0685.293-.1421l3.353-3.4294 4.796-.0762c.11-.0091.215-.0489.304-.1146.089-.0658.157-.155.198-.2577s.053-.2147.033-.3236c-.019-.1088-.068-.2101-.142-.2925l-3.429-3.353-.076-4.7956c-.009-.1102-.049-.2156-.115-.3044s-.155-.1575-.258-.1984c-.102-.0409-.214-.0524-.323-.0331-.109.0192-.21.0684-.293.1421l-3.353 3.4294-4.795.0761c-.11.0092-.216.0489-.305.1147-.088.0658-.157.155-.198.2577s-.052.2147-.033.3235c.019.1089.068.2102.142.2926z" fill="#252526" fill-opacity=".08" fill-rule="evenodd"/></g></svg>