<svg fill="none" height="25" viewBox="0 0 33 25" width="33" xmlns="http://www.w3.org/2000/svg" xmlns:xlink="http://www.w3.org/1999/xlink"><filter id="a" color-interpolation-filters="sRGB" filterUnits="userSpaceOnUse" height="24.142" width="32" x=".118" y="0"><feFlood flood-opacity="0" result="BackgroundImageFix"/><feBlend in="SourceGraphic" in2="BackgroundImageFix" mode="normal" result="shape"/><feColorMatrix in="SourceAlpha" result="hardAlpha" type="matrix" values="0 0 0 0 0 0 0 0 0 0 0 0 0 0 0 0 0 0 127 0"/><feOffset dy="1"/><feComposite in2="hardAlpha" k2="-1" k3="1" operator="arithmetic"/><feColorMatrix type="matrix" values="0 0 0 0 0.145098 0 0 0 0 0.145098 0 0 0 0 0.14902 0 0 0 0.08 0"/><feBlend in2="shape" mode="normal" result="effect1_innerShadow"/></filter><g filter="url(#a)"><path clip-rule="evenodd" d="m1.7248 3.14552c.15199-1.73722 1.6835-3.02231 3.42072-2.870323l23.82728 2.084623c1.7372.15198 3.0223 1.68349 2.8703 3.42071l-1.3312 15.21647c-.152 1.7372-1.6835 3.0223-3.4207 2.8703l-23.82734-2.0846c-1.73722-.152-3.02231-1.6835-2.870323-3.4207zm1.91652.73702c.05275-.60298.73657-.92469 1.23474-.5809l10.23674 7.06446c.6868.474 1.5725.5515 2.3312.2039l11.308-5.17948c.5503-.25207 1.1678.1835 1.1151.78648l-1.2303 14.0616c-.0854.9772-.9469 1.7001-1.9241 1.6146l-22.68706-1.9849c-.97719-.0855-1.70005-.9469-1.61455-1.9241zm11.82168 15.67896c3.2085.2807 6.0329-1.9334 6.2955-4.935.0315-.3594-.2368-.676-.5973-.7076l-10.3303-.9037c-.361-.0316-.6793.2337-.7108.5931-.26263 3.002 2.1463 5.6735 5.3429 5.9532zm.2502-3.0826c1.1503.1006 2.0508.5607 2.0099 1.0277-.0408.4669-1.0075.7636-2.1579.663-1.1506-.1007-2.0508-.5607-2.0099-1.0277.0409-.4669 1.0072-.7637 2.1579-.663zm-8.89093-6.53412c-.73828-.06459-1.43385.99182-1.55357 2.36012-.11971 1.3684.38186 2.5295 1.12013 2.5941s1.43385-.9918 1.55356-2.3602c.11972-1.3683-.38185-2.5294-1.12012-2.59402zm17.29303 4.00902c.1198-1.3684.8153-2.4247 1.5536-2.3602.7383.0646 1.2399 1.2258 1.1201 2.5941-.1197 1.3683-.8153 2.4247-1.5535 2.3601-.7383-.0646-1.2399-1.2257-1.1202-2.594z" fill="#252526" fill-opacity=".08" fill-rule="evenodd"/></g></svg>