<svg fill="none" height="23" viewBox="0 0 23 23" width="23" xmlns="http://www.w3.org/2000/svg"><path d="m11.5734 17.8953c-.6105 0-1.1029-.4923-1.1029-1.1029v-2.5208c0-.6105.4924-1.1028 1.1029-1.1028s1.1029.4923 1.1029 1.1028v2.5208c0 .6106-.4924 1.1029-1.1029 1.1029zm8.8229-6.7747v8.8229c0 1.0438-.8468 1.8906-1.8906 1.8906h-13.86459c-1.04378 0-1.89062-.8468-1.89062-1.8906v-8.8229c0-1.0438.84684-1.89065 1.89062-1.89065h1.26042v-1.89062c0-3.13134 2.55234-5.67975 5.68767-5.67187 3.1352.00788 5.6561 2.59173 5.6561 5.72701v1.83548h1.2604c1.0438 0 1.8906.84685 1.8906 1.89065zm-12.60415-1.89065h7.56245v-1.89062c0-2.08362-1.6976-3.78125-3.7812-3.78125-2.08363 0-3.78125 1.69763-3.78125 3.78125zm10.71355 1.89065h-13.86459v8.8229h13.86459z" fill="#2dc98b"/></svg>