<svg fill="none" height="700" viewBox="0 0 350 700" width="350" xmlns="http://www.w3.org/2000/svg" xmlns:xlink="http://www.w3.org/1999/xlink"><filter id="a" color-interpolation-filters="sRGB" filterUnits="userSpaceOnUse" height="694.4" width="344.8" x="2" y="5"><feFlood flood-opacity="0" result="BackgroundImageFix"/><feColorMatrix in="SourceAlpha" type="matrix" values="0 0 0 0 0 0 0 0 0 0 0 0 0 0 0 0 0 0 127 0"/><feOffset/><feGaussianBlur stdDeviation="1"/><feColorMatrix type="matrix" values="0 0 0 0 0 0 0 0 0 0.0823529 0 0 0 0 0.25098 0 0 0 0.14 0"/><feBlend in2="BackgroundImageFix" mode="normal" result="effect1_dropShadow"/><feColorMatrix in="SourceAlpha" type="matrix" values="0 0 0 0 0 0 0 0 0 0 0 0 0 0 0 0 0 0 127 0"/><feOffset dy="2"/><feGaussianBlur stdDeviation="2"/><feColorMatrix type="matrix" values="0 0 0 0 0 0 0 0 0 0.0823529 0 0 0 0 0.25098 0 0 0 0.05 0"/><feBlend in2="effect1_dropShadow" mode="normal" result="effect2_dropShadow"/><feBlend in="SourceGraphic" in2="effect2_dropShadow" mode="normal" result="shape"/></filter><g clip-rule="evenodd" fill="#c7c7cc" fill-rule="evenodd"><path d="m343 165h.8c.884 0 1.6.716 1.6 1.6v76.8c0 .884-.716 1.6-1.6 1.6h-.8z"/><path d="m4 212.6c0-.884.71634-1.6 1.6-1.6h.8v50.4h-.8c-.88366 0-1.6-.716-1.6-1.6z"/><path d="m4 149.6c0-.884.71634-1.6 1.6-1.6h.8v50.4h-.8c-.88366 0-1.6-.716-1.6-1.6z"/><path d="m4 100.6c0-.8837.71634-1.6 1.6-1.6h.8v26.4h-.8c-.88366 0-1.6-.716-1.6-1.6z"/></g><g filter="url(#a)"><path clip-rule="evenodd" d="m6 57.4c0-27.8351 22.5649-50.4 50.4-50.4h236c27.835 0 50.4 22.5649 50.4 50.4v585.6c0 27.835-22.565 50.4-50.4 50.4h-236c-27.8351 0-50.4-22.565-50.4-50.4z" fill="#3a4245" fill-rule="evenodd"/></g></svg>