<svg fill="none" height="701" viewBox="0 0 350 701" width="350" xmlns="http://www.w3.org/2000/svg"><g clip-rule="evenodd" fill-rule="evenodd"><path d="m56.4 12c-25.626 0-46.4 20.774-46.4 46.4v585.6c0 25.626 20.774 46.4 46.4 46.4h236c25.626 0 46.4-20.774 46.4-46.4v-585.6c0-25.626-20.774-46.4-46.4-46.4zm182.8 38h-130.4c-10.6039 0-19.2-8.5961-19.2052-20.2052-.1033-2.0458-1.7438-3.6863-3.7948-3.7948h-31.4c-16.7895 0-30.4 13.6105-30.4 30.4v588.8c0 16.789 13.6105 30.4 30.4 30.4h239.2c16.789 0 30.4-13.611 30.4-30.4v-588.8c0-16.7895-13.611-30.4-30.4-30.4l-31.405.0052c-2.046.1033-3.686 1.7438-3.795 3.7948 0 11.6039-8.596 20.2-19.2 20.2z" fill="#252526"/><path d="m211.2 39.7517c3.534 0 6.4-2.8654 6.4-6.4 0-3.5347-2.866-6.4-6.4-6.4-3.535 0-6.4 2.8653-6.4 6.4 0 3.5346 2.865 6.4 6.4 6.4z" fill="#262c2d"/><path d="m211.2 37.3517c2.209 0 4-1.7909 4-4 0-2.2092-1.791-4-4-4s-4 1.7908-4 4c0 2.2091 1.791 4 4 4z" fill="#252526"/><path d="m211.2 32.5517c.442 0 .8-.3582.8-.8 0-.4419-.358-.8-.8-.8s-.8.3581-.8.8c0 .4418.358.8.8.8z" fill="#8e8e93" opacity=".4"/><path d="m154.4 33.3517c0-1.3255 1.074-2.4 2.4-2.4h36c1.325 0 2.4 1.0745 2.4 2.4 0 1.3254-1.075 2.4-2.4 2.4h-36c-1.326 0-2.4-1.0746-2.4-2.4z" fill="#262c2d"/></g></svg>