<svg fill="none" height="23" viewBox="0 0 23 23" width="23" xmlns="http://www.w3.org/2000/svg" xmlns:xlink="http://www.w3.org/1999/xlink"><clipPath id="a"><path d="m.916992.750565h22v22h-22z"/></clipPath><g clip-path="url(#a)"><path d="m21.4849 9.82923c-.068-.04812.009.00069-1.4238-.86728-.0495-.30216-.1158-.61016-.198-.91678-.2925-1.09106-1.179-3.62794-3.093-3.62794-.1723 0-.3435.02235-.5088.06703-.6359.1705-1.0945.58472-1.364 1.20003-.3039-.10415-.615-.16706-.924-.16706-.5675 0-1.089.20866-1.4682.58781-.1959.19594-.5142.60638-.5754 1.24507-.9481-.46303-1.8421-.73288-2.76615-.73288-1.40078 0-2.66543.63491-3.86271 1.92466-.47129-.35131-1.03504-.55-1.63385-.55-1.51903 0-2.749998 1.2289-2.749998 2.74961 0 1.5191 1.229248 2.7497 2.749998 2.7497.37744 0 .74044-.0804 1.07697-.2252.25094.4088.30044.4359 1.75828 2.0285l-.32794.1774c-.53693.3575-.85731.9563-.85731 1.6015v.8157c0 .6941.35888 1.3163.95838 1.6645.30181.1756.63387.2633.96662.2633.3276 0 .65519-.0853.95494-.2561l1.45097-.8291.5019.5482c.1546.1689.3427.3038.5522.396.2096.0923.436.14.665.14h5.5c.9113 0 1.65-.7388 1.65-1.65 0-.8986-.4331-1.6978-1.1017-2.2h2.0993c1.8761 0 3.4024-1.5167 3.4024-3.3808.0003-1.0925-.5352-2.123-1.4321-2.75587zm-17.27203 1.84457c-.66378.3874-1.1691.0003-1.32344-.154-.42969-.4297-.42969-1.1261 0-1.55547.22997-.23032.91334-.58404 1.52006-.02372-.20419.55789-.25987 1.15049-.19662 1.73319zm3.16593 6.4542c-.12031.0695-.22343.0279-.275-.0006-.05053-.0303-.13646-.1004-.13646-.2379v-.8157c0-.0925.04606-.1778.05568-.1891l.62563-.3372.85731.9364zm12.1361-3.8115h-3.1976l-1.652.6886c-.0121-1.6545-1.0935-3.1261-2.6404-3.5843l-1.2481-.3702c-.4404-.1289-.89584.1203-1.02474.5565-.12994.4373.11928.8965.55654 1.0258l1.2481.3698c.8604.2548 1.461 1.0894 1.461 2.0292v2.0343h2.75c.607 0 1.1.4936 1.1 1.1h-5.5004l-4.95478-5.413c-.76862-.8326-.77893-2.1096-.02784-2.958.95081-1.07387 1.83184-1.52797 2.77922-1.52797 1.8188 0 3.8827 1.67372 7.1538 3.84967 0-.648-.0131-.7645.1289-1.1385-.4524-.2365-.9807-.6298-1.4912-1.14023-1.0632-1.06288-1.6376-2.21203-1.2832-2.56609.3692-.36919 1.5513.26812 2.5664 1.28287.0887.08869.1685.17806.2503.26744-.3531-1.40147-.2709-2.61835.1997-2.7445.485-.13063 1.1931.94669 1.5809 2.39422.1502.56031.2293 1.09312.2441 1.54619.0893.0289.1787.0536.2677.0969l1.7525 1.0619c.4606.3248.7339.8494.7339 1.4083-.0004.9563-.7851 1.7311-1.7528 1.7311zm-.9976-2.7496c-.3038 0-.55.2461-.55.55s.2462.55.55.55c.3039 0 .55-.2461.55-.55s-.2461-.55-.55-.55z" fill="#facd51"/></g></svg>