<svg fill="none" height="20" viewBox="0 0 20 20" width="20" xmlns="http://www.w3.org/2000/svg"><path d="m1.43945 10.0606 5.49994 5.4981c.94406.9441 2.56062.2719 2.56062-1.0606v-2.4462c4.58089.2668 4.95409 1.5687 4.19309 3.9962-.4265 1.3612 1.096 2.4653 2.256 1.7019 1.8628-1.226 3.0509-3.1313 3.0509-5.4359 0-5.3241-5.1887-6.16098-9.49999-6.29067v-2.52196c0-1.335-1.61844-2.00282-2.56062-1.06063l-5.49994 5.49853c-.585934.58563-.585934 1.53563 0 2.12123zm1.06056-1.0606 5.5-5.5v4.00093c4.47439.01969 9.49999.36807 9.49999 4.81317 0 2.0925-1.25 3.4359-2.3756 4.1765 1.5456-4.9309-1.9831-5.9319-7.12439-5.9878v3.9972z" fill="#007cff"/></svg>