<svg fill="none" height="20" viewBox="0 0 20 20" width="20" xmlns="http://www.w3.org/2000/svg"><path d="m10 15.3591v-11.61004l-5.35875 2.23125c.315 4.35749 2.445 7.59749 5.35875 9.37879zm7.8938-12.22129-7.2-2.999995c-.2194-.090983-.4545-.137815-.6919-.137815-.23747 0-.47258.046832-.6919.137815l-7.2 2.999995c-.67125.2775-1.11.93375-1.11 1.66125 0 7.44374 4.29375 12.58874 8.30625 14.26124.4425.1838.94125.1838 1.38375 0 3.2138-1.3387 8.31-5.9625 8.31-14.26124 0-.7275-.4387-1.38375-1.1062-1.66125zm-7.8938 14.26129c-3.65625-1.5225-7.2-6.2513-7.2-12.60004l7.2-3 7.2 3c0 6.51754-3.69 11.13754-7.2 12.60004z" fill="#007cff"/></svg>