<svg fill="none" height="140" viewBox="0 0 100 140" width="100" xmlns="http://www.w3.org/2000/svg" xmlns:xlink="http://www.w3.org/1999/xlink"><filter id="a" color-interpolation-filters="sRGB" filterUnits="userSpaceOnUse" height="108.407" width="100" x="0" y="16"><feFlood flood-opacity="0" result="BackgroundImageFix"/><feBlend in="SourceGraphic" in2="BackgroundImageFix" mode="normal" result="shape"/><feColorMatrix in="SourceAlpha" result="hardAlpha" type="matrix" values="0 0 0 0 0 0 0 0 0 0 0 0 0 0 0 0 0 0 127 0"/><feOffset dy="1"/><feComposite in2="hardAlpha" k2="-1" k3="1" operator="arithmetic"/><feColorMatrix type="matrix" values="0 0 0 0 0.145098 0 0 0 0 0.145098 0 0 0 0 0.14902 0 0 0 0.08 0"/><feBlend in2="shape" mode="normal" result="effect1_innerShadow"/></filter><clipPath id="b"><path d="m0 0h100v140h-100z"/></clipPath><g clip-path="url(#b)"><g filter="url(#a)"><path clip-rule="evenodd" d="m81.7016 16.8134.345.9449c.2053.5632.1993 1.1818-.0168 1.7409l-3.4824 9.0095 4.2251-1.5426c.3084-.1126.649-.0981.9467.0404.2977.1384.5282.3895.6408.6979l.4246 1.163c.1126.3084.0981.6489-.0404.9466-.1384.2978-.3895.5283-.6979.6409l-8.1406 2.9722c-.3084.1126-.6489.098-.9466-.0404-.2978-.1385-.5283-.3896-.6409-.698l-.345-.9449c-.2053-.5632-.1993-1.1817.0168-1.7409l3.4817-9.0092-4.2244 1.5424c-.3084.1126-.6489.098-.9467-.0404-.2977-.1385-.5282-.3896-.6408-.698l-.4246-1.1629c-.1126-.3084-.0981-.649.0404-.9467.1384-.2977.3895-.5282.6979-.6408l8.1406-2.9722c.3084-.1126.6489-.0981.9467.0404.2977.1384.5282.3895.6408.6979zm-14.9533 22.4945 12.8018-2.2573c.485-.0855.9841.0251 1.3876.3076.4034.2825.6781.7137.7637 1.1987l.3377 1.9157c.0568.3233.049.6546-.0231.9748s-.2069.6229-.3967.8907l-7.6689 10.7853 8.789-1.5497c.3234-.0571.6562.0167.9251.205.269.1884.4521.4758.5091.7992l.43 2.4384c.057.3234-.0168.6561-.2051.9251s-.4758.4521-.7991.5091l-14.021 2.4723c-.485.0855-.9842-.0252-1.3876-.3077-.4035-.2825-.6782-.7136-.7637-1.1987l-.3378-1.9157c-.0567-.3232-.0489-.6545.0232-.9747s.2069-.6229.3967-.8907l7.6688-10.7853-7.5697 1.3347c-.3234.057-.6562-.0167-.9251-.2051-.269-.1883-.4521-.4757-.5091-.7991l-.43-2.4384c-.057-.3234.0168-.6561.2051-.9251s.4758-.4521.7991-.5091zm-50.1535 18.8154c-4.5007-.7936-8.78744 2.1822-9.57464 6.6466l-6.895081 39.1041c-.787193 4.464 2.223231 8.727 6.723971 9.52l61.73095 10.885c4.5008.794 8.7875-2.182 9.5747-6.646l6.895-39.1044c.7872-4.4644-2.2232-8.7268-6.7239-9.5204zm-1.3836 7.7765c-1.2232-1.0052-3.0805-.3294-3.3538 1.2202l-6.37175 36.136c-.4428 2.511 1.25056 4.909 3.78222 5.356l58.77683 10.363c2.5317.447 4.943-1.227 5.3858-3.738l6.3718-36.1365c.2732-1.5496-1.241-2.8198-2.7342-2.2937l-30.6826 10.8115c-2.0588.7254-4.3533.3209-6.0398-1.065zm4.8781 20.6051c.8439.1488 1.4084.948 1.2608 1.7851-.3125 1.7721.9886 3.6645 3.1722 4.0495 2.1836.3851 4.0534-.9482 4.3659-2.7204.1476-.837.9513-1.395 1.7952-1.2462s1.4084.948 1.2608 1.7851c-.6422 3.6421-4.2894 5.8594-7.9564 5.2128-3.667-.6465-6.3359-3.9776-5.6937-7.6197.1476-.8371.9514-1.395 1.7952-1.2462zm12.208 13.5501c.8437-.1451 1.6481.416 1.7966 1.254.2647 1.493 1.9405 3.479 5.9724 4.19 4.032.711 6.2859-.582 7.0453-1.894.4261-.737 1.374-.989 2.1172-.565.7432.425 1.0003 1.367.5743 2.103-1.6578 2.866-5.5273 4.224-10.2713 3.387-4.7439-.836-7.9155-3.436-8.4933-6.696-.1485-.837.4151-1.634 1.2588-1.779zm23.7043-5.655c.1476-.8371-.4169-1.6363-1.2608-1.7851-.8438-.1488-1.6476.4091-1.7952 1.2462-.6422 3.6421 2.0267 6.9729 5.6937 7.6199 3.667.646 7.3142-1.571 7.9564-5.213.1476-.8371-.4169-1.6363-1.2608-1.7851-.8438-.1488-1.6476.4092-1.7952 1.2462-.3125 1.7722-2.1823 3.1054-4.3659 2.7204s-3.4847-2.2774-3.1722-4.0495zm42.8851-61.621-8.622-.8732c-.3267-.0331-.6531.065-.9075.2725-.2544.2076-.4159.5078-.449.8345l-.1247 1.2317c-.0331.3267.0649.6531.2725.9075s.5078.4159.8344.449l4.4743.4531-7.0604 6.5908c-.4383.4091-.7132.9632-.7739 1.5595l-.1014 1.0008c-.0331.3267.065.6531.2726.9075s.5077.4159.8344.449l8.622.8732c.3267.0331.6531-.0649.9075-.2725s.4159-.5078.449-.8345l.1248-1.2317c.033-.3266-.065-.6531-.2726-.9075s-.5077-.4159-.8344-.4489l-4.475-.4533 7.0611-6.5907c.4383-.409.7133-.9632.7739-1.5595l.1014-1.0008c.0333-.3267-.065-.6531-.2726-.9075-.2075-.2544-.5077-.4159-.8344-.449z" fill="#252526" fill-opacity=".08" fill-rule="evenodd"/></g></g></svg>