<svg fill="none" height="23" viewBox="0 0 23 23" width="23" xmlns="http://www.w3.org/2000/svg"><path d="m18.2189 11.9169h-2.6217c-.6404 0-1.1595-.5192-1.1595-1.1596v-.3726c0-1.07809.3497-2.10415.8452-3.06167.3589-.69362.5081-1.51171.3565-2.37982-.2667-1.52747-1.5153-2.78474-3.0431-3.05061-.2301-.03978-.4569-.05908-.6795-.05908-2.08832 0-3.78122 1.6929-3.78122 3.78125 0 .55774.12289 1.08475.34189 1.55859.52543 1.13673.91853 2.3294.91853 3.58154v.0024c0 .6404-.51914 1.1596-1.15959 1.1596h-2.62166c-2.08836 0-3.78125 1.6929-3.78125 3.7812v1.8906c0 .3482.28201.6302.6302.6302h.63021v2.5209c0 .696.56443 1.2604 1.26042 1.2604h15.12497c.696 0 1.2604-.5644 1.2604-1.2604v-2.5209h.6303c.3481 0 .6302-.282.6302-.6302v-1.8906c0-2.0883-1.6929-3.7812-3.7813-3.7812zm-14.49478 3.7812c0-1.0426.84803-1.8906 1.89063-1.8906h2.62166c1.68187 0 3.05019-1.3684 3.05019-3.0526 0-1.37148-.3474-2.76149-1.0926-4.37443-.1115-.24105-.1678-.49865-.1678-.7657 0-1.0426.848-1.89062 1.8906-1.89062.1166 0 .2364.01063.3553.03111.7413.1292 1.3743.76531 1.5046 1.51329.0737.42185.0154.82124-.1733 1.18597-.7105 1.37425-1.0564 2.65988-1.0564 3.93018v.3726c0 1.6818 1.3684 3.0502 3.0502 3.0502h2.6217c1.0426 0 1.8906.848 1.8906 1.8906v.6302h-16.38538zm15.12498 4.4115h-13.86456v-1.8907h13.86456z" fill="#007cff"/></svg>