<svg fill="none" height="23" viewBox="0 0 23 23" width="23" xmlns="http://www.w3.org/2000/svg"><path d="m13.3065 17.8865h.9453c.1253 0 .2456-.0498.3342-.1384.0887-.0886.1384-.2089.1384-.3342v-8.50784c0-.12535-.0497-.24558-.1384-.33422-.0886-.08864-.2089-.13843-.3342-.13843h-.9453c-.1254 0-.2456.04979-.3342.13843-.0887.08864-.1385.20887-.1385.33422v8.50784c0 .1253.0498.2456.1385.3342.0886.0886.2088.1384.3342.1384zm6.4596-13.23434h-3.246l-1.3391-2.23331c-.1681-.28004-.4059-.51177-.6901-.6726-.2843-.16084-.6053-.24529-.9319-.24514h-3.97114c-.32647-.00002-.64739.0845-.93149.24533-.28411.16083-.52173.39249-.68973.67241l-1.33998 2.23331h-3.24596c-.16715 0-.32744.06639-.44563.18458-.11818.11819-.18458.27848-.18458.44562v.63021c0 .16714.0664.32744.18458.44563.11819.11818.27848.18458.44563.18458h.63021v13.23442c0 .5014.19919.9823.55375 1.3368.35456.3546.83545.5538 1.33687.5538h11.34377c.5014 0 .9823-.1992 1.3369-.5538.3545-.3545.5537-.8354.5537-1.3368v-13.23442h.6302c.1672 0 .3275-.0664.4456-.18458.1182-.11819.1846-.27849.1846-.44563v-.63021c0-.16714-.0664-.32743-.1846-.44562-.1181-.11819-.2784-.18458-.4456-.18458zm-10.24717-1.1458c.02106-.03506.05086-.06405.08648-.08414.03563-.02009.07586-.0306.11676-.03048h3.70243c.0409-.00005.081.01049.1166.03057.0355.02009.0653.04905.0863.08405l.6877 1.1458h-5.48359zm7.72637 16.27084h-11.34377v-13.23442h11.34377zm-8.35028-1.8907h.94531c.12536 0 .24557-.0498.33427-.1384.0886-.0886.1384-.2089.1384-.3342v-8.50784c0-.12535-.0498-.24558-.1384-.33422-.0887-.08864-.20891-.13843-.33427-.13843h-.94531c-.12536 0-.24558.04979-.33422.13843s-.13844.20887-.13844.33422v8.50784c0 .1253.0498.2456.13844.3342s.20886.1384.33422.1384z" fill="#fd7471"/></svg>