<svg fill="none" height="32" viewBox="0 0 32 32" width="32" xmlns="http://www.w3.org/2000/svg"><path clip-rule="evenodd" d="m21.385 9.00034c-.3346-.04194-1.7561 3.84756-1.7561 3.84756l-4.8095-.1677s-1.1707-3.67986-1.84-3.67986c-.2262 0-.4045.82157-.6772 2.07726-.4662 2.1473-1.208 5.5641-2.93584 8.3127-.45092.7173-.542 1.6572.04595 2.2673 4.09129 4.245 13.22569 2.4512 14.27229 1.0555 1.1287-1.5053-1.966-13.67072-2.2996-13.71276zm-7.5695 11.87666c-1.1314 0-1.9806-1.2345-1.9806-2.551 0-1.3166.8833-3.0107 2.0147-3.0107s2.0146 1.8198 2.0146 3.1364c.0009 1.3157-.9164 2.4253-2.0487 2.4253zm6.1445 0c-1.1313 0-1.9797-1.2345-1.9797-2.551 0-1.3166.8833-3.0107 2.0147-3.0107s2.0146 1.8198 2.0146 3.1364c-.0008 1.3157-.9182 2.4253-2.0496 2.4253zm-5.2379-2.1743c0 .9747-.3956 1.7645-.883 1.7645s-.8812-.7898-.8812-1.7645c0-.9741.3938-1.7639.8812-1.7639.4873 0 .883.7898.883 1.7639zm5.2916 1.7645c.4874 0 .883-.7898.883-1.7645 0-.9741-.3957-1.7639-.883-1.7639-.4874 0-.8812.7898-.8812 1.7639 0 .9747.3938 1.7645.8812 1.7645z" fill="#8e8e93" fill-rule="evenodd"/></svg>