<svg fill="none" height="32" viewBox="0 0 32 32" width="32" xmlns="http://www.w3.org/2000/svg"><path d="m19.4889 7.78958c-1.2334-.51083-2.5908-.51082-3.8236-.0002-1.2337.51102-2.1935 1.47084-2.7054 2.70462l-3.29288 7.9511c-.12882.3109.01874.6672.33014.797l2.40994.9982-1.4652 3.5371c-.1821.4395-.1826.9227.0002 1.3609.1817.4387.5241.7811.9622.9625.4395.1821.9227.1825 1.3614.0008.4388-.1817.7812-.5242.9622-.9633l1.4663-3.5375 2.41.9982c.1495.0619.3178.0615.4668-.0002.1502-.0622.2683-.1805.3303-.33l3.2929-7.9511c.5109-1.2334.511-2.5907.0001-3.8242-.5116-1.23214-1.4721-2.19321-2.7054-2.70392zm-6.3883 16.88192c-.1146.2766-.454.4171-.7305.3026-.1376-.057-.2453-.1647-.3023-.3021-.0569-.1374-.0568-.2898.0001-.4273l1.4653-3.5371 1.033.4278zm7.9661-10.8209-.1363.3289-.0236-.0063c-.158-.1303-.2711-.2717-.3973-.4299-.2764-.3474-.6187-.7791-1.441-1.1196-.8211-.341-1.3695-.2774-1.8102-.2261-.3771.0435-.674.0773-1.2032-.1419s-.7153-.453-.9501-.7508c-.2024-.2555-.4421-.5562-.8811-.8326.4083-.79328 1.0751-1.41126 1.9081-1.75631.9313-.38578 1.9579-.38622 2.8908.00015s1.658 1.11146 2.0442 2.04376c.3851.9328.3855 1.9593-.0003 2.8907z" fill="#8e8e93"/></svg>