<svg fill="none" height="32" viewBox="0 0 32 32" width="32" xmlns="http://www.w3.org/2000/svg"><path d="m12.9644 8.00478c-.5051-.0475-.9751.26313-1.1041.75377l-.4629 1.75855c5.8634.1715 9.8297 4.0817 10.0779 9.9065l1.7794-.4931c.4913-.1363.7966-.615.7382-1.1219-.6526-5.6496-5.3437-10.26724-11.0285-10.80382zm-1.8273 3.50012-3.1204 11.8595c-.02269.0861-.02225.1767.00127.2627.02351.0859.06927.1641.13266.2267.0634.0626.14217.1074.22839.1298s.17684.0217.2627-.002l11.84418-3.2845c-.1335-5.4655-3.8464-9.1297-9.3488-9.191zm.8625 9.4956c-.1977 0-.3911-.0586-.5555-.1685-.1645-.1099-.2927-.2661-.3684-.4488s-.0955-.3838-.0569-.5778.1339-.3722.2737-.512c.1399-.1399.3181-.2351.512-.2737.194-.0386.3951-.0188.5778.0569.1828.0757.339.2039.4488.3683.1099.1645.1686.3578.1686.5556 0 .2652-.1054.5196-.2929.7071-.1876.1876-.4419.2929-.7072.2929zm1.5001-4.7501c-.1978 0-.3911-.0587-.5556-.1686-.1644-.1099-.2926-.266-.3683-.4488-.0757-.1827-.0955-.3838-.0569-.5778.0386-.1939.1338-.3721.2737-.512.1398-.1399.318-.2351.512-.2737s.3951-.0188.5778.0569.3389.2039.4488.3683c.1099.1645.1685.3578.1685.5556 0 .2653-.1053.5196-.2929.7072-.1875.1875-.4419.2929-.7071.2929zm3.2501 3.2501c-.1978 0-.3911-.0587-.5556-.1686-.1644-.1098-.2926-.266-.3683-.4488-.0757-.1827-.0955-.3838-.0569-.5777.0386-.194.1338-.3722.2737-.5121.1398-.1398.318-.2351.512-.2737s.3951-.0188.5778.0569.3389.2039.4488.3684c.1099.1644.1685.3578.1685.5555 0 .2653-.1053.5196-.2929.7072-.1875.1875-.4419.2929-.7071.2929z" fill="#8e8e93"/></svg>